<svg xmlns="http://www.w3.org/2000/svg" xmlns:xlink="http://www.w3.org/1999/xlink" width="500" zoomAndPan="magnify" viewBox="0 0 375 374.999991" height="500" preserveAspectRatio="xMidYMid meet" version="1.0"><defs><g/><clipPath id="93b8f797a4"><path d="M 124 189 L 258 189 L 258 217.667969 L 124 217.667969 Z M 124 189 " clip-rule="nonzero"/></clipPath><clipPath id="b8d9cd37d1"><path d="M 130 146 L 271.859375 146 L 271.859375 190 L 130 190 Z M 130 146 " clip-rule="nonzero"/></clipPath><clipPath id="56896c5770"><path d="M 103.109375 72.917969 L 244 72.917969 L 244 213 L 103.109375 213 Z M 103.109375 72.917969 " clip-rule="nonzero"/></clipPath></defs><rect x="-37.5" width="450" fill="#ffffff" y="-37.499999" height="449.999989" fill-opacity="1"/><rect x="-37.5" width="450" fill="#ffffff" y="-37.499999" height="449.999989" fill-opacity="1"/><g clip-path="url(#93b8f797a4)"><path fill="#4da7af" d="M 130.871094 194.9375 C 122.988281 195.027344 124.597656 197.261719 131.328125 197.175781 C 139.210938 197.082031 137.605469 194.847656 130.871094 194.9375 Z M 219.21875 213.777344 C 223.886719 213.777344 227.667969 214.640625 227.667969 215.707031 C 227.667969 216.773438 223.886719 217.636719 219.21875 217.636719 C 214.550781 217.636719 210.769531 216.773438 210.769531 215.707031 C 210.769531 214.640625 214.554688 213.777344 219.21875 213.777344 Z M 126.121094 192.148438 L 159.441406 192.148438 C 162.730469 192.148438 163.394531 194.179688 159.203125 194.160156 L 144.203125 194.171875 C 139.667969 194.171875 139.355469 197.3125 143.933594 197.425781 L 163.144531 197.4375 C 187.132812 198.039062 156.203125 202.3125 169.289062 202.597656 C 175.257812 202.726562 182.144531 202.425781 187.535156 202.824219 C 193.320312 203.253906 192.394531 205.285156 187.433594 205.859375 C 180.640625 206.640625 176.980469 210.445312 188.085938 210.40625 L 229.359375 210.246094 C 234.113281 210.226562 235.59375 205.683594 228.644531 205.488281 L 218.527344 205.207031 C 212.917969 205.050781 213.3125 200.238281 219.066406 200.242188 L 244.148438 200.242188 C 248.296875 200.242188 251.757812 197.40625 245.105469 196.644531 L 230.847656 196.03125 C 222.628906 195.089844 223.816406 192.152344 231.828125 192.152344 L 255.269531 192.152344 C 256.988281 192.152344 258.136719 189.652344 255.269531 189.4375 L 253.207031 189.429688 L 245.105469 189.398438 L 245.105469 189.429688 L 126.121094 189.429688 C 212.472656 189.078125 212.476562 189.429688 126.121094 189.429688 C 123.25 189.660156 124.097656 192.148438 126.042969 192.148438 Z M 126.121094 192.148438 " fill-opacity="1" fill-rule="evenodd"/></g><g clip-path="url(#b8d9cd37d1)"><path fill="#003353" d="M 258.734375 154.125 L 240.851562 189.429688 L 245.414062 189.429688 C 252.25 178.40625 265.875 156.671875 271.828125 146.292969 C 240.871094 146.460938 150.042969 153.335938 130.101562 170.339844 C 176.816406 158.796875 211.507812 157.589844 258.734375 154.125 Z M 258.734375 154.125 " fill-opacity="1" fill-rule="evenodd"/></g><path fill="#003353" d="M 129.785156 162.390625 C 165.679688 151.648438 187.597656 146.347656 226.066406 146.210938 C 223.851562 143.296875 220.875 140.382812 216.691406 140.195312 C 212.773438 140.023438 206.269531 140.679688 202.234375 141.054688 C 183.960938 142.753906 167.859375 146.105469 150.945312 152.136719 C 145.664062 154.015625 133.730469 158.4375 129.785156 162.390625 Z M 129.785156 162.390625 " fill-opacity="1" fill-rule="evenodd"/><path fill="#003353" d="M 127.105469 155.902344 C 132.652344 154.144531 138.046875 151.507812 144.019531 149.566406 C 162.097656 143.691406 182.863281 140.730469 201.792969 138.855469 C 198.753906 134.640625 197.605469 134.242188 192.878906 134.761719 C 179.65625 136.222656 186.542969 135.1875 182.449219 133.746094 C 174.78125 131.054688 136.769531 145.078125 127.105469 155.902344 Z M 127.105469 155.902344 " fill-opacity="1" fill-rule="evenodd"/><path fill="#4da7af" d="M 222.390625 115.890625 C 220.066406 112.808594 214.53125 110.792969 211.394531 110.871094 C 215.859375 112.167969 219.296875 114.679688 220.398438 117.164062 L 223.390625 118.03125 C 225.652344 116.523438 229.894531 116.246094 234.363281 117.542969 C 231.757812 115.796875 226.003906 114.53125 222.390625 115.890625 Z M 222.390625 115.890625 " fill-opacity="1" fill-rule="evenodd"/><path fill="#4da7af" d="M 236.246094 128.113281 C 232.421875 125.742188 225.554688 125.886719 222.179688 127.296875 C 227.582031 126.820312 232.371094 128.101562 234.617188 130.335938 L 238.238281 130.015625 C 240.054688 127.425781 244.550781 125.332031 249.953125 124.859375 C 246.382812 124.058594 239.597656 125.113281 236.246094 128.113281 Z M 236.246094 128.113281 " fill-opacity="1" fill-rule="evenodd"/><g clip-path="url(#56896c5770)"><path fill="#4da7af" d="M 177.257812 72.914062 C 206.042969 72.914062 230.996094 89.335938 243.257812 113.320312 C 230.269531 96.070312 209.617188 84.917969 186.359375 84.917969 C 147.046875 84.917969 115.175781 116.789062 115.175781 156.101562 C 115.175781 179.359375 126.332031 200.007812 143.582031 213 C 119.59375 200.738281 103.175781 175.785156 103.175781 146.996094 C 103.175781 106.082031 136.34375 72.914062 177.257812 72.914062 Z M 177.257812 72.914062 " fill-opacity="1" fill-rule="evenodd"/></g><g fill="#003353" fill-opacity="1"><g transform="translate(67.268264, 270.227129)"><g><path d="M 46.1875 -23.078125 C 46.1875 -19.710938 45.617188 -16.613281 44.484375 -13.78125 C 43.347656 -10.945312 41.75 -8.515625 39.6875 -6.484375 C 37.625 -4.453125 35.140625 -2.863281 32.234375 -1.71875 C 29.328125 -0.570312 26.101562 0 22.5625 0 L 4.828125 0 L 4.828125 -46.125 L 22.5625 -46.125 C 26.101562 -46.125 29.328125 -45.550781 32.234375 -44.40625 C 35.140625 -43.257812 37.625 -41.664062 39.6875 -39.625 C 41.75 -37.582031 43.347656 -35.148438 44.484375 -32.328125 C 45.617188 -29.503906 46.1875 -26.421875 46.1875 -23.078125 Z M 36.40625 -23.078125 C 36.40625 -25.492188 36.082031 -27.664062 35.4375 -29.59375 C 34.800781 -31.519531 33.890625 -33.148438 32.703125 -34.484375 C 31.523438 -35.828125 30.082031 -36.859375 28.375 -37.578125 C 26.664062 -38.296875 24.726562 -38.65625 22.5625 -38.65625 L 14.4375 -38.65625 L 14.4375 -7.46875 L 22.5625 -7.46875 C 24.726562 -7.46875 26.664062 -7.820312 28.375 -8.53125 C 30.082031 -9.238281 31.523438 -10.265625 32.703125 -11.609375 C 33.890625 -12.960938 34.800781 -14.601562 35.4375 -16.53125 C 36.082031 -18.457031 36.40625 -20.640625 36.40625 -23.078125 Z M 36.40625 -23.078125 "/></g></g></g><g fill="#003353" fill-opacity="1"><g transform="translate(118.641801, 270.227129)"><g><path d="M 66.890625 -46.125 L 52.578125 0 L 43.96875 0 L 34.515625 -30.171875 C 34.367188 -30.585938 34.222656 -31.050781 34.078125 -31.5625 C 33.929688 -32.070312 33.796875 -32.613281 33.671875 -33.1875 C 33.535156 -32.613281 33.394531 -32.070312 33.25 -31.5625 C 33.101562 -31.050781 32.957031 -30.585938 32.8125 -30.171875 L 23.265625 0 L 14.625 0 L 0.34375 -46.125 L 8.359375 -46.125 C 9.179688 -46.125 9.875 -45.929688 10.4375 -45.546875 C 11 -45.171875 11.367188 -44.664062 11.546875 -44.03125 L 18.6875 -18.03125 C 18.863281 -17.300781 19.039062 -16.519531 19.21875 -15.6875 C 19.394531 -14.851562 19.566406 -13.96875 19.734375 -13.03125 C 19.929688 -13.988281 20.132812 -14.878906 20.34375 -15.703125 C 20.550781 -16.523438 20.785156 -17.300781 21.046875 -18.03125 L 29.375 -44.03125 C 29.539062 -44.5625 29.90625 -45.039062 30.46875 -45.46875 C 31.03125 -45.90625 31.710938 -46.125 32.515625 -46.125 L 35.3125 -46.125 C 36.144531 -46.125 36.816406 -45.925781 37.328125 -45.53125 C 37.847656 -45.144531 38.238281 -44.644531 38.5 -44.03125 L 46.796875 -18.03125 C 47.046875 -17.34375 47.273438 -16.601562 47.484375 -15.8125 C 47.703125 -15.019531 47.90625 -14.175781 48.09375 -13.28125 C 48.257812 -14.175781 48.421875 -15.019531 48.578125 -15.8125 C 48.742188 -16.601562 48.910156 -17.34375 49.078125 -18.03125 L 56.234375 -44.03125 C 56.378906 -44.582031 56.738281 -45.066406 57.3125 -45.484375 C 57.882812 -45.910156 58.570312 -46.125 59.375 -46.125 Z M 66.890625 -46.125 "/></g></g></g><g fill="#003353" fill-opacity="1"><g transform="translate(188.866864, 270.227129)"><g><path d="M 14.4375 -38.65625 L 14.4375 -26.796875 L 29.8125 -26.796875 L 29.8125 -19.578125 L 14.4375 -19.578125 L 14.4375 -7.46875 L 34.203125 -7.46875 L 34.203125 0 L 4.828125 0 L 4.828125 -46.125 L 34.203125 -46.125 L 34.203125 -38.65625 Z M 14.4375 -38.65625 "/></g></g></g><g fill="#003353" fill-opacity="1"><g transform="translate(228.350907, 270.227129)"><g><path d="M 14.4375 -38.65625 L 14.4375 -26.796875 L 29.8125 -26.796875 L 29.8125 -19.578125 L 14.4375 -19.578125 L 14.4375 -7.46875 L 34.203125 -7.46875 L 34.203125 0 L 4.828125 0 L 4.828125 -46.125 L 34.203125 -46.125 L 34.203125 -38.65625 Z M 14.4375 -38.65625 "/></g></g></g><g fill="#003353" fill-opacity="1"><g transform="translate(267.834949, 270.227129)"><g><path d="M 20.40625 -23.171875 C 23.394531 -23.171875 25.582031 -23.890625 26.96875 -25.328125 C 28.363281 -26.773438 29.0625 -28.75 29.0625 -31.25 C 29.0625 -32.394531 28.882812 -33.4375 28.53125 -34.375 C 28.175781 -35.320312 27.644531 -36.128906 26.9375 -36.796875 C 26.226562 -37.460938 25.332031 -37.972656 24.25 -38.328125 C 23.175781 -38.691406 21.894531 -38.875 20.40625 -38.875 L 14.375 -38.875 L 14.375 -23.171875 Z M 20.40625 -46.125 C 23.5625 -46.125 26.289062 -45.753906 28.59375 -45.015625 C 30.894531 -44.273438 32.785156 -43.238281 34.265625 -41.90625 C 35.753906 -40.582031 36.851562 -39.007812 37.5625 -37.1875 C 38.269531 -35.363281 38.625 -33.382812 38.625 -31.25 C 38.625 -28.976562 38.253906 -26.898438 37.515625 -25.015625 C 36.773438 -23.128906 35.648438 -21.507812 34.140625 -20.15625 C 32.640625 -18.800781 30.742188 -17.742188 28.453125 -16.984375 C 26.160156 -16.234375 23.476562 -15.859375 20.40625 -15.859375 L 14.375 -15.859375 L 14.375 0 L 4.828125 0 L 4.828125 -46.125 Z M 20.40625 -46.125 "/></g></g></g><g fill="#4da7af" fill-opacity="1"><g transform="translate(100.664344, 296.264499)"><g><path d="M 1.953125 0 L 1.953125 -14.546875 L 3.921875 -14.546875 L 3.921875 0 Z M 1.953125 0 "/></g></g></g><g fill="#4da7af" fill-opacity="1"><g transform="translate(107.892508, 296.264499)"><g><path d="M 11.171875 0 L 3.390625 -12.390625 L 3.4375 -11.390625 L 3.484375 -9.65625 L 3.484375 0 L 1.734375 0 L 1.734375 -14.546875 L 4.03125 -14.546875 L 11.890625 -2.078125 C 11.804688 -3.421875 11.765625 -4.394531 11.765625 -5 L 11.765625 -14.546875 L 13.546875 -14.546875 L 13.546875 0 Z M 11.171875 0 "/></g></g></g><g fill="#4da7af" fill-opacity="1"><g transform="translate(124.515623, 296.264499)"><g><path d="M 14.25 -7.421875 C 14.25 -5.921875 13.957031 -4.609375 13.375 -3.484375 C 12.789062 -2.359375 11.960938 -1.492188 10.890625 -0.890625 C 9.816406 -0.296875 8.578125 0 7.171875 0 L 1.734375 0 L 1.734375 -14.546875 L 6.546875 -14.546875 C 9.003906 -14.546875 10.898438 -13.925781 12.234375 -12.6875 C 13.578125 -11.457031 14.25 -9.703125 14.25 -7.421875 Z M 12.28125 -7.421875 C 12.28125 -9.222656 11.785156 -10.597656 10.796875 -11.546875 C 9.804688 -12.492188 8.375 -12.96875 6.5 -12.96875 L 3.703125 -12.96875 L 3.703125 -1.578125 L 6.953125 -1.578125 C 8.015625 -1.578125 8.945312 -1.8125 9.75 -2.28125 C 10.5625 -2.75 11.1875 -3.421875 11.625 -4.296875 C 12.0625 -5.179688 12.28125 -6.222656 12.28125 -7.421875 Z M 12.28125 -7.421875 "/></g></g></g><g fill="#4da7af" fill-opacity="1"><g transform="translate(141.138734, 296.264499)"><g><path d="M 1.953125 0 L 1.953125 -14.546875 L 3.921875 -14.546875 L 3.921875 0 Z M 1.953125 0 "/></g></g></g><g fill="#4da7af" fill-opacity="1"><g transform="translate(148.366898, 296.264499)"><g><path d="M 12.046875 0 L 10.390625 -4.25 L 3.75 -4.25 L 2.078125 0 L 0.046875 0 L 5.984375 -14.546875 L 8.21875 -14.546875 L 14.0625 0 Z M 7.078125 -13.0625 L 6.984375 -12.765625 C 6.804688 -12.191406 6.550781 -11.460938 6.21875 -10.578125 L 4.359375 -5.796875 L 9.796875 -5.796875 L 7.921875 -10.59375 C 7.734375 -11.0625 7.539062 -11.597656 7.34375 -12.203125 Z M 7.078125 -13.0625 "/></g></g></g><g fill="#4da7af" fill-opacity="1"><g transform="translate(163.823372, 296.264499)"><g/></g></g><g fill="#4da7af" fill-opacity="1"><g transform="translate(171.051538, 296.264499)"><g><path d="M 7.4375 -12.9375 L 7.4375 0 L 5.46875 0 L 5.46875 -12.9375 L 0.46875 -12.9375 L 0.46875 -14.546875 L 12.421875 -14.546875 L 12.421875 -12.9375 Z M 7.4375 -12.9375 "/></g></g></g><g fill="#4da7af" fill-opacity="1"><g transform="translate(185.320754, 296.264499)"><g><path d="M 12.015625 0 L 8.234375 -6.03125 L 3.703125 -6.03125 L 3.703125 0 L 1.734375 0 L 1.734375 -14.546875 L 8.578125 -14.546875 C 10.210938 -14.546875 11.472656 -14.175781 12.359375 -13.4375 C 13.253906 -12.707031 13.703125 -11.691406 13.703125 -10.390625 C 13.703125 -9.304688 13.382812 -8.394531 12.75 -7.65625 C 12.125 -6.925781 11.257812 -6.460938 10.15625 -6.265625 L 14.28125 0 Z M 11.71875 -10.359375 C 11.71875 -11.210938 11.429688 -11.859375 10.859375 -12.296875 C 10.285156 -12.742188 9.457031 -12.96875 8.375 -12.96875 L 3.703125 -12.96875 L 3.703125 -7.59375 L 8.46875 -7.59375 C 9.5 -7.59375 10.296875 -7.832031 10.859375 -8.3125 C 11.429688 -8.800781 11.71875 -9.484375 11.71875 -10.359375 Z M 11.71875 -10.359375 "/></g></g></g><g fill="#4da7af" fill-opacity="1"><g transform="translate(201.943868, 296.264499)"><g><path d="M 12.046875 0 L 10.390625 -4.25 L 3.75 -4.25 L 2.078125 0 L 0.046875 0 L 5.984375 -14.546875 L 8.21875 -14.546875 L 14.0625 0 Z M 7.078125 -13.0625 L 6.984375 -12.765625 C 6.804688 -12.191406 6.550781 -11.460938 6.21875 -10.578125 L 4.359375 -5.796875 L 9.796875 -5.796875 L 7.921875 -10.59375 C 7.734375 -11.0625 7.539062 -11.597656 7.34375 -12.203125 Z M 7.078125 -13.0625 "/></g></g></g><g fill="#4da7af" fill-opacity="1"><g transform="translate(217.400346, 296.264499)"><g><path d="M 14.25 -7.421875 C 14.25 -5.921875 13.957031 -4.609375 13.375 -3.484375 C 12.789062 -2.359375 11.960938 -1.492188 10.890625 -0.890625 C 9.816406 -0.296875 8.578125 0 7.171875 0 L 1.734375 0 L 1.734375 -14.546875 L 6.546875 -14.546875 C 9.003906 -14.546875 10.898438 -13.925781 12.234375 -12.6875 C 13.578125 -11.457031 14.25 -9.703125 14.25 -7.421875 Z M 12.28125 -7.421875 C 12.28125 -9.222656 11.785156 -10.597656 10.796875 -11.546875 C 9.804688 -12.492188 8.375 -12.96875 6.5 -12.96875 L 3.703125 -12.96875 L 3.703125 -1.578125 L 6.953125 -1.578125 C 8.015625 -1.578125 8.945312 -1.8125 9.75 -2.28125 C 10.5625 -2.75 11.1875 -3.421875 11.625 -4.296875 C 12.0625 -5.179688 12.28125 -6.222656 12.28125 -7.421875 Z M 12.28125 -7.421875 "/></g></g></g><g fill="#4da7af" fill-opacity="1"><g transform="translate(234.02346, 296.264499)"><g><path d="M 1.953125 0 L 1.953125 -14.546875 L 3.921875 -14.546875 L 3.921875 0 Z M 1.953125 0 "/></g></g></g><g fill="#4da7af" fill-opacity="1"><g transform="translate(241.251627, 296.264499)"><g><path d="M 11.171875 0 L 3.390625 -12.390625 L 3.4375 -11.390625 L 3.484375 -9.65625 L 3.484375 0 L 1.734375 0 L 1.734375 -14.546875 L 4.03125 -14.546875 L 11.890625 -2.078125 C 11.804688 -3.421875 11.765625 -4.394531 11.765625 -5 L 11.765625 -14.546875 L 13.546875 -14.546875 L 13.546875 0 Z M 11.171875 0 "/></g></g></g><g fill="#4da7af" fill-opacity="1"><g transform="translate(257.874741, 296.264499)"><g><path d="M 1.0625 -7.34375 C 1.0625 -9.695312 1.691406 -11.519531 2.953125 -12.8125 C 4.222656 -14.113281 6.003906 -14.765625 8.296875 -14.765625 C 9.910156 -14.765625 11.21875 -14.488281 12.21875 -13.9375 C 13.226562 -13.394531 14.003906 -12.523438 14.546875 -11.328125 L 12.671875 -10.78125 C 12.253906 -11.601562 11.679688 -12.203125 10.953125 -12.578125 C 10.234375 -12.960938 9.332031 -13.15625 8.25 -13.15625 C 6.570312 -13.15625 5.285156 -12.644531 4.390625 -11.625 C 3.503906 -10.613281 3.0625 -9.1875 3.0625 -7.34375 C 3.0625 -5.5 3.53125 -4.046875 4.46875 -2.984375 C 5.414062 -1.921875 6.722656 -1.390625 8.390625 -1.390625 C 9.335938 -1.390625 10.222656 -1.535156 11.046875 -1.828125 C 11.867188 -2.117188 12.535156 -2.507812 13.046875 -3 L 13.046875 -5.625 L 8.703125 -5.625 L 8.703125 -7.28125 L 14.859375 -7.28125 L 14.859375 -2.265625 C 14.085938 -1.472656 13.144531 -0.863281 12.03125 -0.4375 C 10.914062 -0.0078125 9.703125 0.203125 8.390625 0.203125 C 6.867188 0.203125 5.554688 -0.0976562 4.453125 -0.703125 C 3.359375 -1.304688 2.519531 -2.175781 1.9375 -3.3125 C 1.351562 -4.457031 1.0625 -5.800781 1.0625 -7.34375 Z M 1.0625 -7.34375 "/></g></g></g></svg>